<svg xmlns="http://www.w3.org/2000/svg" xmlns:xlink="http://www.w3.org/1999/xlink" version="1.1" x="0px" y="0px" viewBox="0 0 100 125" enable-background="new 0 0 100 100" xml:space="preserve"><path d="M49.3481445,27.815918h1.3037109c0.4140625,0,0.75-0.3359375,0.75-0.75s-0.3359375-0.75-0.75-0.75h-1.3037109  c-0.4140625,0-0.75,0.3359375-0.75,0.75S48.934082,27.815918,49.3481445,27.815918z"/><path d="M26.0380859,56.4560547c0.012207,0,0.0244141-0.0004883,0.0366211-0.0009766l33.1411133-1.6069336  c0.4140625-0.0200195,0.7329102-0.371582,0.7128906-0.7851563c-0.0200195-0.4140625-0.3813477-0.7299805-0.7851563-0.7128906  l-32.3920898,1.5703125l-1.1386719-23.484375l46.1083984-2.1591797l1.1347656,23.4082031l-5.8413086,0.2832031  c-0.4140625,0.0200195-0.7329102,0.371582-0.7128906,0.7851563s0.3740234,0.7265625,0.7851563,0.7128906l6.5908203-0.3193359  c0.1987305-0.0097656,0.3857422-0.0976563,0.519043-0.2451172c0.1337891-0.1469727,0.2036133-0.3413086,0.1938477-0.5400391  L73.1831055,28.456543c-0.0200195-0.4135742-0.3603516-0.7441406-0.7841797-0.7128906l-47.6069336,2.2294922  c-0.1987305,0.0092773-0.3857422,0.097168-0.5200195,0.2446289c-0.1337891,0.1474609-0.2036133,0.3417969-0.1938477,0.5405273  l1.2114258,24.9838867C25.309082,56.1435547,25.640625,56.4560547,26.0380859,56.4560547z"/><path d="M76.9818726,58.7617188c0.3555298-0.3068848,0.585022-0.7521362,0.585022-1.253418V28.6748047  c0-3.7485352-2.394043-4.7485352-3.8046875-4.7485352l-46.6748047-0.2402344c-0.2182617,0-0.4785156-0.0117188-0.7646484-0.0239258  c-0.3740234-0.0161133-0.7900391-0.0336914-1.215332-0.0336914c-2.7905273,0-4.2055664,0.9399414-4.2055664,2.793457v31.0864258  c0,0.5162354,0.2434692,0.9728394,0.6176147,1.2799683l-5.8480835,9.9573364  c-0.081543,0.1040039-1.980957,2.5776367-1.2021484,4.8486328c0.4555664,1.3295898,1.6835938,2.2563477,3.6499023,2.7543945  l0.090332,0.0229492h64.2641602c0.0869141,0,2.1420898-0.0180664,2.9472656-1.5839844  c0.7226563-1.4047852,0.1552734-3.3735352-1.7358398-6.0170898C82.0463257,66.4785156,78.3114624,60.7929077,76.9818726,58.7617188z   M22.4018555,26.421875c0-0.4199219,0-1.293457,2.7055664-1.293457c0.402832,0,0.7963867,0.0170898,1.1508789,0.0322266  c0.3105469,0.0136719,0.5927734,0.0253906,0.8251953,0.0253906l46.6748047,0.2402344  c0.5415039,0,2.3085938,0.234375,2.3085938,3.2485352v28.8334961c0,0.0952148-0.0883789,0.1728516-0.1972656,0.1728516H22.5991211  c-0.1088867,0-0.1972656-0.0776367-0.1972656-0.1728516V26.421875z M84.0893555,74.097168  c-0.3764648,0.7412109-1.6069336,0.7744141-1.6157227,0.7744141H18.3984375  c-1.3886719-0.3671875-2.2329102-0.9589844-2.5092773-1.7597656c-0.4296875-1.2456055,0.5517578-2.9091797,1.0200195-3.5249023  l6.1190796-10.4057617h52.4351807c1.0049438,1.5373535,5.2194214,7.9694824,7.0018921,10.4614258  C84.4423828,72.4082031,84.331543,73.6206055,84.0893555,74.097168z"/><path d="M52.2045898,67.9907227c-0.1132813-0.2861328-0.3896484-0.4741211-0.6972656-0.4741211h-5.5585938  c-0.3354492,0-0.6303711,0.2226563-0.7216797,0.5454102L44.328125,71.234375  c-0.0639648,0.2260742-0.0185547,0.4692383,0.1235352,0.6567383c0.1416016,0.1875,0.3632813,0.2978516,0.5981445,0.2978516  h7.7124023c0.2485352,0,0.4804688-0.1230469,0.6201172-0.328125c0.1396484-0.2055664,0.168457-0.4667969,0.0771484-0.6977539  L52.2045898,67.9907227z M46.0419922,70.6889648l0.4736328-1.6723633h4.4819336l0.6616211,1.6723633H46.0419922z"/><path d="M21.9711914,69.9223633h-2.4492188c-0.4140625,0-0.75,0.3359375-0.75,0.75s0.3359375,0.75,0.75,0.75h2.4492188  c0.4140625,0,0.75-0.3359375,0.75-0.75S22.3852539,69.9223633,21.9711914,69.9223633z"/><path d="M25.8754883,62.8779297h35.5844727c0.4140625,0,0.75-0.3359375,0.75-0.75s-0.3359375-0.75-0.75-0.75H25.8754883  c-0.4140625,0-0.75,0.3359375-0.75,0.75S25.4614258,62.8779297,25.8754883,62.8779297z"/><path d="M64.7495117,62.8779297H66.5625c0.4140625,0,0.75-0.3359375,0.75-0.75s-0.3359375-0.75-0.75-0.75h-1.8129883  c-0.4140625,0-0.75,0.3359375-0.75,0.75S64.3354492,62.8779297,64.7495117,62.8779297z"/><path d="M38.9829102,65.6479492h-4.3842773c-0.4140625,0-0.75,0.3359375-0.75,0.75s0.3359375,0.75,0.75,0.75h4.3842773  c0.4140625,0,0.75-0.3359375,0.75-0.75S39.3969727,65.6479492,38.9829102,65.6479492z"/><path d="M67.8618164,66.0063477c-2.2558594,0.0634766-4.5732422-0.0073242-6.8149414-0.0766602  c-1.6303711-0.050293-3.315918-0.1025391-4.9741211-0.1025391c-0.4140625,0-0.75,0.3359375-0.75,0.75s0.3359375,0.75,0.75,0.75  c1.6347656,0,3.309082,0.0517578,4.9277344,0.1015625c1.6367188,0.0507813,3.3139648,0.1025391,4.9873047,0.1025391  c0.6401367,0,1.2802734-0.0073242,1.9169922-0.0258789c0.4140625-0.0117188,0.7402344-0.3569336,0.7280273-0.7709961  C68.6210938,66.3203125,68.2861328,65.9682617,67.8618164,66.0063477z"/><path d="M30.5463867,65.7773438c-1.2280273,0.0454102-2.4614258,0.0249023-3.6538086,0.0048828  c-1.2231445-0.0209961-2.4873047-0.0415039-3.777832,0.0058594c-0.4135742,0.015625-0.7368164,0.3637695-0.7211914,0.777832  c0.015625,0.4130859,0.3378906,0.7436523,0.777832,0.7211914c1.2490234-0.0473633,2.4926758-0.0263672,3.6953125-0.0053711  c0.6733398,0.0117188,1.3583984,0.0234375,2.0522461,0.0234375c0.5571289,0,1.1191406-0.0078125,1.684082-0.0288086  c0.4135742-0.015625,0.7368164-0.3637695,0.7211914-0.777832C31.3081055,66.0849609,30.9658203,65.753418,30.5463867,65.7773438z"/><path d="M29.2744141,47.8813477c-0.4125977,0.0395508-0.7148438,0.4057617-0.675293,0.8178711  c0.0371094,0.3881836,0.3637695,0.6787109,0.7456055,0.6787109c0.0239258,0,0.0483398-0.0009766,0.0722656-0.003418  c1.1132813-0.1064453,2.1918945-0.2241211,3.2387695-0.3525391c0.4106445-0.0507813,0.703125-0.425293,0.652832-0.8364258  c-0.0507813-0.4116211-0.4262695-0.6982422-0.8364258-0.652832C31.4389648,47.6601563,30.3730469,47.7758789,29.2744141,47.8813477z  "/><path d="M65.8618164,31.6005859c-0.3930664-0.1137695-0.8105469,0.1162109-0.9267578,0.512207  c-0.03125,0.1069336-3.4023438,10.7011719-28.1401367,14.7993164c-0.4086914,0.0673828-0.6850586,0.4536133-0.6171875,0.8623047  c0.0605469,0.3671875,0.378418,0.6274414,0.7387695,0.6274414c0.0410156,0,0.0820313-0.003418,0.1235352-0.0102539  c25.8095703-4.2753906,29.206543-15.3984375,29.3383789-15.8701172  C66.4897461,32.1245117,66.2587891,31.7138672,65.8618164,31.6005859z"/></svg>