<svg xmlns="http://www.w3.org/2000/svg" xmlns:xlink="http://www.w3.org/1999/xlink" version="1.1" x="0px" y="0px" viewBox="0 0 100 125" enable-background="new 0 0 100 100" xml:space="preserve"><path d="M60.1416016,37.6621094c-0.2446289-6.2241211-5.1337891-8.918457-5.3417969-9.0297852  c-0.3652344-0.1953125-0.8168945-0.0581055-1.0136719,0.3046875c-0.1962891,0.3637695-0.0605469,0.8183594,0.3027344,1.015625  c0.1772461,0.0966797,4.34375,2.421875,4.5537109,7.7680664c0.0161133,0.4038086,0.3481445,0.7207031,0.7490234,0.7207031  c0.0097656,0,0.0200195,0,0.0297852-0.0004883C59.8354492,38.4248047,60.1577148,38.0756836,60.1416016,37.6621094z"/><path d="M18.6357422,53.8349609c0.043457-0.4121094-0.2548828-0.78125-0.6665039-0.824707  c-0.4174805-0.0483398-0.78125,0.2543945-0.824707,0.6660156c-0.0341797,0.3203125-0.7836914,7.8925781,3.8037109,12.5839844  c0.1469727,0.1503906,0.3413086,0.2255859,0.5361328,0.2255859c0.1889648,0,0.378418-0.0712891,0.5244141-0.2138672  c0.2958984-0.2895508,0.3012695-0.7641602,0.0117188-1.0605469C17.9331055,61.03125,18.628418,53.90625,18.6357422,53.8349609z"/><path d="M82.1499023,50.75h2.5620117c0.4140625,0,0.75-0.3359375,0.75-0.75s-0.3359375-0.75-0.75-0.75h-2.5620117  c-0.4140625,0-0.75,0.3359375-0.75,0.75S81.7358398,50.75,82.1499023,50.75z"/><path d="M88.5834961,55.453125c0-0.4140625-0.3359375-0.75-0.75-0.75H74.5128784  c-0.1459961-0.5084229-0.3184814-1.0076904-0.52948-1.4912109C73.600647,52.3348999,73.1151733,51.5127563,72.5386963,50.75  h5.3929443c0.4140625,0,0.75-0.3359375,0.75-0.75s-0.3359375-0.75-0.75-0.75h-6.7502441  c-1.6485596-1.5847168-3.7608643-2.8225098-6.2600098-3.6044922c1.4335938-11.3095703-4.3842773-21.4140625-13.4448242-23.1630859  c-0.8999023-0.1738281-1.8208008-0.2617188-2.7363281-0.2617188c-8.8139648,0-16.7128906,7.7788086-18.7817383,18.496582  c-0.0712891,0.3681641-0.1352539,0.7475586-0.1933594,1.1455078c-2.8857422-0.8051758-5.7958984-0.6660156-8.3745117,0.4125977  c-7.496582,3.1347656-10.4291992,13.2592773-6.5371094,22.5693359c1.1694336,2.7958984,2.8886719,5.331543,4.9716797,7.331543  c0.1396484,0.1342773,0.3256836,0.2089844,0.5195313,0.2089844H81.590332h6.2431641c0.4140625,0,0.75-0.3359375,0.75-0.75  s-0.3359375-0.75-0.75-0.75h-4.9561157c0.4291382-0.9238892,0.6275635-1.8623657,0.5606079-2.8046875  c-0.2270508-3.2114258-3.3554688-5.953125-8.6166992-7.5820313c0.2382202-1.4650879,0.2386475-2.9099731,0.0209961-4.2954102  h12.9912109C88.2475586,56.203125,88.5834961,55.8671875,88.5834961,55.453125z M81.9418945,68.1865234  c0.0629883,0.8891602-0.1904297,1.7954102-0.753418,2.6987305H20.6499023  c-1.8398438-1.8256836-3.3623047-4.1079102-4.4125977-6.6191406c-3.5732422-8.5473633-1.0019531-17.7910156,5.7319336-20.6069336  c2.5009766-1.0449219,5.359375-1.0795898,8.1796875-0.105957c0.0026245,0.0009155,0.0054932,0,0.0081177,0.0008545  c0.0033569,0.0010986,0.0055542,0.0039063,0.0089722,0.0050049c0.065918,0.0209961,6.6152344,2.1381836,9.3134766,5.5063477  c0.1484375,0.1850586,0.3662109,0.28125,0.5859375,0.28125c0.1645508,0,0.3300781-0.0537109,0.4682617-0.1645508  c0.3232422-0.2592773,0.3754883-0.730957,0.1166992-1.0541992c-2.5106812-3.1340332-7.6815796-5.1708374-9.432251-5.7938843  c0.0635376-0.4657593,0.132019-0.9129639,0.2130127-1.3325806c1.9018555-9.8515625,9.3432617-17.2807617,17.309082-17.2807617  c0.8203125,0,1.6455078,0.0786133,2.4521484,0.234375c8.4404297,1.6298828,13.7802734,11.3442383,12.1557617,22.1157227  c-0.0566406,0.3754883,0.1762695,0.7338867,0.5419922,0.8349609c4.1826172,1.1552734,7.2788086,3.6079102,8.7182617,6.9057617  c0.1279297,0.2930298,0.239563,0.5907593,0.3403931,0.8916016H60.4536133c-0.4140625,0-0.75,0.3359375-0.75,0.75  s0.3359375,0.75,0.75,0.75h12.8783569c0.2684326,1.4823608,0.2364502,3.043396-0.105896,4.6679688  c-0.081543,0.3862305,0.1503906,0.769043,0.5297852,0.8764648C78.6953125,63.144043,81.7553711,65.5507813,81.9418945,68.1865234z"/><path d="M54.4453125,54.703125h-3.0922852c-0.4140625,0-0.75,0.3359375-0.75,0.75s0.3359375,0.75,0.75,0.75h3.0922852  c0.4140625,0,0.75-0.3359375,0.75-0.75S54.859375,54.703125,54.4453125,54.703125z"/></svg>