<svg xmlns="http://www.w3.org/2000/svg" xmlns:xlink="http://www.w3.org/1999/xlink" version="1.1" x="0px" y="0px" viewBox="0 0 100 125" enable-background="new 0 0 100 100" xml:space="preserve"><path d="M23.1723633,53.5244141c0.0202637,0.1205444,0.0755005,0.2229004,0.1435547,0.3147583  c1.8719482,5.7255249,6.288147,11.8021851,15.831543,16.1261597c0.1005859,0.0454102,0.2055664,0.0668945,0.309082,0.0668945  c0.0811768,0,0.1599121-0.0164795,0.2359009-0.041748c0.3291626,0.2145996,0.5991211,0.3571777,0.7015991,0.407959  c4.0253906,1.4873047,7.8520508,2.230957,11.456543,2.230957c3.5170898,0,6.8232422-0.7089844,9.890625-2.1259766  c9.8549805-4.5527344,13.6665039-14.6948242,13.8369141-15.1635742c2.7578125-9.0458984,2.3974609-16.8408203-1.0712891-23.1689453  c-4.8553467-8.8583374-13.9827271-11.605896-14.6424561-11.7942505c-0.7321777-0.2872314-11.4537964-4.336731-21.8546143,0.2556763  c-6.5561523,2.8945313-11.4736328,8.5869141-14.6157227,16.9194336c-0.000061,0.0002441-0.000061,0.0004883-0.0001221,0.0007324  c-0.053833,0.142395-2.7380371,7.559082-0.2172241,15.8322754C23.1756592,53.4315796,23.1642456,53.4765015,23.1723633,53.5244141z   M61.847168,68.78125c-0.0102539,0.0063477-0.0200195,0.012207-0.0297852,0.019043  c-0.2314453,0.1171875-0.4663086,0.230957-0.7050781,0.3413086c-5.8369141,2.6967773-12.6318359,2.6450195-20.1166992-0.1142578  c-0.7993164-0.4111328-1.8701172-1.277832-1.8012695-1.8359375c0.0205078-0.1679688,0.2944336-1.0419922,3.6748047-1.84375  c0.7163086-0.0610352,3.6030273-0.3955078,4.4941406-1.8427734c0.2250977-0.3662109,0.4272461-0.9663086,0.1386719-1.6542969  c-0.1098633-0.4067383-0.1376953-1.1323242,0.0712891-1.2988281c0.1586914-0.1245117,0.7675781-0.1450195,2.0810547,0.5375977  c1.3095703,1.5024414,5.2631836,5.675293,7.4692383,4.0258789c0.0356445-0.0263672,0.0688477-0.0561523,0.0991211-0.0888672  c0.5537109-0.5952148,2.3349609-2.1083984,3.8857422-2.1259766c0.5839844,0.0039063,1.0869141,0.2265625,1.5336914,0.6811523  C62.8974609,64.2148438,64.0737305,67.4741211,61.847168,68.78125z M67.4716797,26.2685547  c0.0059204-0.0198975,0.0095215-0.0430908,0.0150146-0.0637207c2.0623779,1.6481934,4.1370239,3.8261719,5.7052002,6.6872559  c1.0045776,1.8328857,1.7280273,3.8037109,2.175415,5.9028931c-3.4040527,2.0193481-3.4586182,7.1497192-3.4591064,7.3778687  c0,0.0483398,0.0043945,0.0966797,0.0136719,0.144043c0.1513672,0.777832,0.0322266,1.3735352-0.3637695,1.8198242  c-0.9511719,1.0732422-3.3188477,1.1484375-4.1694336,1.0913086c-2.9726563-0.1411133-3.3408203-0.8325195-3.3842773-0.9697266  c-0.1538086-0.4824219,0.6821289-1.4790039,1.3588867-2.0332031c2.3251953-1.003418,2.3706055-4.9838867,2.3681641-5.4418945  c-0.0004883-0.0527344-0.0063477-0.1049805-0.0175781-0.1567383c-0.2978516-1.3569336-0.9580078-2.2939453-1.9619141-2.7851563  c-1.8598633-0.909668-4.1572266,0.1645508-4.2543945,0.2104492c-0.0864258,0.0415039-0.1645508,0.0991211-0.2294922,0.1699219  c-1.8725586,2.0400391-4.6450195-0.2822266-4.762207-0.3818359c-0.0273438-0.0239258-0.0581055-0.0463867-0.0888672-0.065918  c-1.5957031-1.0024414-1.6870117-1.4814453-1.6987305-1.4814453h-0.0004883  c0.074707-0.1235352,0.5102539-0.3007813,0.8847656-0.3637695c1.519043-0.0166016,2.5053711-0.4013672,3.0585938-1.2128906  c0.7636719-1.1210938,0.2485352-2.4716797,0.1870117-2.6220703c-0.0268555-0.0664063-0.0634766-0.128418-0.1079102-0.1845703  c-0.2539063-0.3178711-0.6538086-0.9023438-0.4873047-1.2509766c0.3129883-0.6538086,2.2744141-1.0102539,3.5703125-1.0161133  c0.0537109,0,0.1079102-0.0063477,0.1601563-0.0180664C62.7866211,29.4453125,66.8266602,28.4418945,67.4716797,26.2685547z   M59.3422852,21.7832031c0.0132446,0.005188,0.0269775,0.0027466,0.0403442,0.0071411  c0.0127563,0.0042725,0.0217285,0.0140991,0.0348511,0.0177612c0.0507202,0.0141602,2.8949585,0.8365479,6.2025757,3.0272217  c0.5335693,0.5773315,0.4455566,0.8984375,0.4141235,1.0059814c-0.2890625,0.9736328-2.6616211,1.921875-4.3012695,2.3012695  c-0.8344727,0.0112305-4.0170898,0.1660156-4.8325195,1.8666992c-0.3837891,0.8007813-0.1870117,1.71875,0.5839844,2.7290039  c0.0625,0.2089844,0.1914063,0.765625-0.0664063,1.1376953c-0.2543945,0.3676758-0.9208984,0.5581055-1.8603516,0.5522461  c-0.0371094,0.0004883-0.074707,0.0019531-0.1113281,0.0068359c-0.3203125,0.0444336-1.9306641,0.324707-2.1889648,1.5244141  c-0.2685547,1.2470703,1.1777344,2.3364258,2.3154297,3.0556641c1.3686523,1.1533203,4.4350586,2.6328125,6.6855469,0.3417969  c0.4082031-0.1655273,1.8168945-0.6674805,2.8344727-0.1679688c0.5629883,0.2753906,0.9360352,0.8256836,1.1381836,1.6811523  c-0.0117188,0.9775391-0.3017578,3.5439453-1.5141602,3.9990234c-0.0703125,0.0263672-0.1367188,0.0634766-0.1967773,0.1098633  c-0.4189453,0.3256836-2.4824219,2.0366211-1.9458008,3.7319336c0.387207,1.2226563,1.9384766,1.8823242,4.7231445,2.0141602  c0.0336914,0.0024414,0.237793,0.0166016,0.5532227,0.0166016c1.1000977,0,3.5512695-0.171875,4.8271484-1.6069336  c0.703125-0.7905273,0.9492188-1.8071289,0.7319336-3.0229492c0.0151367-0.5161133,0.1994019-4.0133057,2.2421875-5.6920166  c0.6112671,4.3242798,0.1158447,9.156189-1.4951172,14.4429932C74.125,54.9487305,71.3481445,62.3432617,64.5952148,67.121582  c0.2651367-1.5683594-0.1733398-3.2519531-0.6308594-4.2646484c-0.0322266-0.0717773-0.0756836-0.1376953-0.1289063-0.1958008  c-0.7543945-0.8300781-1.6689453-1.2539063-2.7177734-1.2607422c-0.0083008,0-0.015625,0-0.0234375,0  c-2.3227539,0-4.5112305,2.1323242-4.9082031,2.5400391c-0.8222656,0.4838867-3.5258789-1.6606445-5.4887695-3.9384766  c-0.0605469-0.0698242-0.1333008-0.1279297-0.2148438-0.1713867c-1.7744141-0.9501953-3.0327148-1.0986328-3.8432617-0.4526367  c-1.0883789,0.8662109-0.6396484,2.6630859-0.5546875,2.9536133c0.0883789,0.215332,0.046875,0.3125,0.0014648,0.387207  c-0.3828125,0.6225586-2.2514648,1.0473633-3.3935547,1.1386719c-0.0375977,0.0029297-0.0756836,0.0087891-0.1123047,0.0175781  c-3.15625,0.7407227-4.7055664,1.7373047-4.875,3.1362305c-0.0250244,0.2059937-0.0111694,0.4047241,0.0256348,0.5974731  c-7.4436646-3.8797607-11.1582031-8.8824463-12.888855-13.6661987c3.1459961-0.9698486,4.2508545-4.133728,4.4423218-6.1641846  c6.7910156-1.9428711,10.7050781-4.6547852,11.6362305-8.0649414c0.9882813-3.6171875-1.784668-6.5317383-1.9658203-6.7114258  c-3.1459961-2.5859375-3.0556641-3.7138672-2.953125-3.9980469c0.2973633-0.8222656,2.3823242-1.1665039,3.6928711-1.1884766  c0.0385742,0.0039063,0.1279297-0.0078125,0.1894531-0.0234375c3.8759766-0.987793,5.6899414-2.1425781,5.7089844-3.6337891  c0.0192871-1.4927979-1.894165-2.6206665-3.5950317-3.3293457C50.8427124,18.4953613,59.2474365,21.7451172,59.3422852,21.7832031z   M24.7973633,38.081543c0.0001221-0.0002441,0-0.0006104,0.0001221-0.0008545  c2.9926147-7.935791,7.6376343-13.3429565,13.805542-16.0704346c0.3458862-0.1529541,0.692688-0.293335,1.0397949-0.4262085  c2.1556396,0.6474609,4.4593506,1.8407593,4.4499512,2.5546265c-0.0004883,0.0419922-0.0649414,1.0356445-4.4892578,2.1767578  c-0.7519531,0.0068359-4.2768555,0.1474609-5.012207,2.1772461c-0.5375977,1.4853516,0.5776367,3.3393555,3.3486328,5.6108398  c0.0229492,0.0239258,2.2988281,2.4135742,1.5336914,5.2148438c-0.7939453,2.9072266-4.6347656,5.3828125-11.1069336,7.1591797  c-0.3208008,0.0878906-0.5458984,0.3793945-0.5512695,0.7124023c-0.0027466,0.1853027-0.1170654,4.3223267-3.4380493,5.3259277  C22.2595215,45.0979614,24.619751,38.5527344,24.7973633,38.081543z"/><path d="M44.9150391,47.8803711c-1.0209961,0.8393555-2.3310547,2.1044922-1.9238281,3.390625  c0.402832,1.2719727,2.2089844,1.4433594,2.4135742,1.4589844c0.1689453,0.0131836,0.3374023-0.0327148,0.4775391-0.1274414  c0.6674805-0.4536133,1.65625-0.6831055,2.9394531-0.6831055c2.0424805,0,4.1577148,0.5952148,4.6552734,0.7446289  c0.7963867,0.5668945,1.5551758,0.8540039,2.2568359,0.8540039h0.0004883  c2.1884766-0.0004883,3.1186523-2.6699219,3.3525391-4.4165039c0.6088867-0.75,0.5952148-1.3818359,0.465332-1.7919922  c-0.3652344-1.1538086-1.9257813-1.5356445-2.2353516-1.6005859c-0.1313477-0.027832-0.2670898-0.0205078-0.3950195,0.0239258  c-0.5419922,0.1835938-0.9501953,0.2978516-1.3105469,0.2978516c-0.418457,0-0.9711914-0.1455078-1.8999023-1.2236328  c-0.4199219-0.487793-0.8837891-0.7348633-1.3789063-0.7348633c-1.2094727,0-1.9272461,1.480957-2.2744141,2.4863281  c-2.046875-0.2329102-4.9018555,1.1777344-5.0102539,1.234375C45.0004883,47.8173828,44.9560547,47.8466797,44.9150391,47.8803711z   M45.8037109,49.0917969c0.3774414-0.1850586,2.2426758-1.0615234,3.7373047-1.0615234  c0.3061523,0,0.5708008,0.0385742,0.7866211,0.1142578c0.1972656,0.0693359,0.4174805,0.0527344,0.6025391-0.0463867  c0.1855469-0.0991211,0.3208008-0.2714844,0.3725586-0.4755859c0.2392578-0.9360352,0.7661133-1.9711914,1.019043-2.0512695  c0.0009766,0.0004883,0.0908203,0.0263672,0.2529297,0.2143555c1.5361328,1.7836914,2.7973633,2.0297852,4.6171875,1.4379883  c0.4462891,0.1308594,0.8789063,0.3745117,0.9301758,0.5385742c0.0170898,0.0541992-0.0498047,0.2407227-0.3007813,0.5097656  c-0.1113281,0.1196289-0.1811523,0.2724609-0.1977539,0.4350586c-0.0878906,0.8588867-0.6245117,3.3105469-1.8891602,3.3110352  c-0.3994141,0-0.9082031-0.2202148-1.4711914-0.637207c-0.0654297-0.0483398-0.1381836-0.0854492-0.215332-0.1103516  c-0.1074219-0.0351563-2.6606445-0.8510742-5.2260742-0.8510742c-1.449707,0-2.6357422,0.2636719-3.5317383,0.784668  c-0.4169922-0.074707-0.8256836-0.2485352-0.8686523-0.3862305C44.4199219,50.8134766,44.3208008,50.3276367,45.8037109,49.0917969z  "/><path d="M67.0898438,20.1757813C73.3662109,23.6518555,80.7456055,30.2597656,80.2578125,42  c-0.0170898,0.4140625,0.3046875,0.7631836,0.7182617,0.7807617c0.0107422,0.0004883,0.0214844,0.0004883,0.0317383,0.0004883  c0.3999023,0,0.7319336-0.3154297,0.7490234-0.71875c0.5195313-12.5053711-7.2939453-19.5180664-13.9404297-23.1992188  c-0.3623047-0.1987305-0.8183594-0.0688477-1.0195313,0.2929688C66.5961914,19.5185547,66.7275391,19.9750977,67.0898438,20.1757813  z"/><path d="M57.5341797,16.4702148c0.0180664,0.0039063,1.7998047,0.371582,4.3256836,1.3105469  c0.0859375,0.0317383,0.1743164,0.046875,0.2612305,0.046875c0.3041992,0,0.5908203-0.1865234,0.703125-0.4887695  c0.144043-0.3881836-0.0537109-0.8198242-0.4418945-0.9643555c-2.6445313-0.9829102-4.4731445-1.3588867-4.5498047-1.3740234  c-0.4018555-0.0805664-0.8012695,0.1791992-0.8837891,0.5854492C56.8662109,15.9916992,57.128418,16.3876953,57.5341797,16.4702148z  "/><path d="M33.8549805,71.9248047c0.1328125,0.0849609,0.1313477,0.0878906,0.6103516,0.315918l0.3256836,0.1552734  c0.1044922,0.0498047,0.2143555,0.0732422,0.3227539,0.0732422c0.2797852,0,0.5483398-0.1572266,0.6772461-0.4267578  c0.1787109-0.3735352,0.0205078-0.8212891-0.3535156-1l-0.3271484-0.15625  c-0.3500977-0.1665039-0.3515625-0.1640625-0.4487305-0.2260742c-0.0844727-0.0537109-0.2275391-0.1450195-0.6201172-0.371582  c-0.3569336-0.206543-0.8168945-0.0844727-1.0244141,0.2753906c-0.206543,0.3588867-0.0834961,0.8173828,0.2753906,1.0244141  C33.6484375,71.793457,33.7783203,71.8759766,33.8549805,71.9248047z"/><path d="M30.0351563,69.4277344c0.1303711,0.090332,0.2792969,0.1337891,0.4267578,0.1337891  c0.2373047,0,0.4711914-0.112793,0.6166992-0.3227539c0.2363281-0.340332,0.1513672-0.8076172-0.1889648-1.043457  l-0.581543-0.4018555c-1.1962891-0.8237305-1.5571289-1.0722656-2.5688477-2.0634766  c-0.2954102-0.2880859-0.7705078-0.284668-1.0610352,0.0112305c-0.2895508,0.2963867-0.284668,0.7709961,0.0112305,1.0610352  c1.1044922,1.0805664,1.5571289,1.3925781,2.7675781,2.2265625L30.0351563,69.4277344z"/><path d="M24.3911133,63.831543c0.1704102,0,0.3417969-0.0581055,0.4824219-0.1762695  c0.3168945-0.2670898,0.3574219-0.7402344,0.0908203-1.0566406c-4.7124023-5.5961914-4.8969727-12.3041992-4.8979492-12.3710938  c-0.0083008-0.4091797-0.3422852-0.7358398-0.7495117-0.7358398c-0.0048828,0-0.0097656,0-0.0141602,0  c-0.4140625,0.0078125-0.7431641,0.3486328-0.7363281,0.7626953c0.0053711,0.2949219,0.1835938,7.293457,5.2504883,13.3100586  C23.965332,63.7407227,24.1772461,63.831543,24.3911133,63.831543z"/></svg>