<svg xmlns="http://www.w3.org/2000/svg" xmlns:xlink="http://www.w3.org/1999/xlink" version="1.1" x="0px" y="0px" viewBox="0 0 100 125" enable-background="new 0 0 100 100" xml:space="preserve"><path d="M91.5112305,73.9208984h-6.1264648L74.2773438,43.612793c-3.4467773-9.8515625-7.2495117-9.6401367-8.0673828-9.4677734  c-5.3891602,0.1689453-7.3530273,7.9633789-7.4072266,8.2084961l-1.0609741,2.7907715l-6.2300415-15.4611816  c-3.3422852-8.5639648-6.4667969-11.3613281-8.4995117-12.199707c-1.1811523-0.4873047-2.0366211-0.3447266-2.3950195-0.2397461  c-6.1904297,0.1362305-9.3007813,10.3916016-9.4130859,10.777832L13.7565308,73.9208984H8.4887695  c-0.4140625,0-0.75,0.3359375-0.75,0.75s0.3359375,0.75,0.75,0.75h62.1870117c0.4140625,0,0.75-0.3359375,0.75-0.75  s-0.3359375-0.75-0.75-0.75H48.4078979l10.211731-26.8637695l0.4525757-1.1952515  c0.1772461,0.1507568,0.3809204,0.2821045,0.6338501,0.359314c0.9726563,0.2963867,2.0673828-0.2285156,3.3564453-1.6010742  c0.0380859-0.0405273,0.0756836-0.0932617,0.1040039-0.1411133c0.0766602-0.1298828,0.2211914-0.2646484,0.2734375-0.2739258  c0.0039063,0.0004883,0.4316406,0.1201172,1.0200195,1.6186523c0.3681641,0.9350586,1.3828125,3.1259766,2.7470703,2.9907227  c1.128418-0.0883789,1.5668945-1.4882813,1.796875-2.5268555c0.0205078-0.0874023,0.1030273-0.2705078,0.0673828-0.2915039  c0.0024414,0.0004883,0.2583008,0.0522461,0.7827148,0.7392578c1.2612305,1.6484375,2.9492188,3.4746094,4.2358398,3.4741211  c0.1782227,0,0.3491211-0.0351563,0.5097656-0.1103516c0.1416016-0.0665894,0.260498-0.1554565,0.3615723-0.2613525  l8.8260498,24.0831299h-5.4771729c-0.4140625,0-0.75,0.3359375-0.75,0.75s0.3359375,0.75,0.75,0.75h13.2011719  c0.4140625,0,0.75-0.3359375,0.75-0.75S91.925293,73.9208984,91.5112305,73.9208984z M46.8029175,73.9208984H15.3615112  l13.8518066-36.444458c0.1454468,0.038208,0.3016968,0.0664673,0.4805298,0.0665283  c1.2392578,0,2.5761719-1.1005859,4.050293-3.3154297c-0.0175781,0.1523438-0.043457,0.3305664-0.0791016,0.5385742  c-0.0058594,0.034668-0.0092773,0.0693359-0.0102539,0.1044922c-0.0234375,0.7885742,0.0195313,3.402832,1.5605469,3.9379883  c0.1728516,0.0600586,0.3496094,0.090332,0.5317383,0.090332c1.0058594,0,2.1650391-0.9233398,3.5947266-2.8481445  c0.0200195-0.0268555,0.0380859-0.0551758,0.0546875-0.0849609c0.234375-0.4248047,1.1196289-1.6616211,2.0771484-1.7670898  c0.5024414-0.0595703,1.0405273,0.2246094,1.581543,0.8364258c0.0327148,0.0371094,0.0688477,0.0703125,0.1079102,0.1000977  c0.3227539,0.2456055,1.4453125,1.0102539,2.3447266,0.5419922c0.3637695-0.1884766,0.7905273-0.6293945,0.7558594-1.6201172  c0.0092773-0.4360352,0.1489258-0.9916992,0.1972656-1.074707c0.0058594,0.0004883,0.6083984,0.0742188,2.059082,2.2841797  c0.2275391,0.3461914,0.6928711,0.4433594,1.0385742,0.215332c0.3461914-0.2270508,0.4428711-0.6923828,0.215332-1.0385742  c-1.515625-2.3085938-2.6567383-3.2075195-3.6904297-2.9082031c-1.2114258,0.3476563-1.3120117,2.1342773-1.3193359,2.5307617  c0.003418,0.1054688-0.0009766,0.1835938-0.0078125,0.2392578c-0.1674805-0.0493164-0.4287109-0.1816406-0.6342773-0.3266602  c-0.8671875-0.9541016-1.8144531-1.3813477-2.8134766-1.2709961c-1.7988281,0.1992188-2.9755859,2.097168-3.1987305,2.4858398  c-1.75,2.3452148-2.3999023,2.1962891-2.4023438,2.1987305c-0.2739258-0.0952148-0.5791016-1.2260742-0.5546875-2.4267578  c0.2036133-1.2094727,0.2685547-2.3681641-0.5610352-2.7333984c-0.7885742-0.3476563-1.5493164,0.4296875-1.9663086,0.9716797  c-1.6268311,2.4849243-2.5692139,2.8001709-2.8646851,2.8323975l2.8637085-7.5345459  c0.0288086-0.0976563,2.9604492-9.7592773,8.1181641-9.7592773c0.0878906,0,0.1992188-0.0249023,0.2817383-0.0551758  c0.0395508-0.0126953,4.0732422-1.3139648,9.0927734,11.5488281l6.7539063,16.7617188  c0.0249634,0.0617065,0.0673218,0.1089478,0.1054077,0.15979L46.8029175,73.9208984z M73.9023438,48.6660156  c-0.5717773-0.2641602-1.8398438-1.5136719-2.8564453-2.8413086c-0.2885742-0.378418-1.1606445-1.527832-2.2480469-1.2978516  c-0.9467773,0.2041016-1.2265625,1.2983398-1.2568359,1.4296875c-0.1884766,0.8505859-0.3808594,1.1943359-0.4750977,1.3212891  c-0.3129883-0.2280273-0.8666992-1.1337891-1.2099609-2.0029297c-0.6538086-1.6660156-1.4106445-2.5053711-2.3139648-2.5664063  c-0.9057617-0.0581055-1.4462891,0.6630859-1.6245117,0.9384766c-0.9121094,0.9570313-1.5239258,1.2138672-1.7724609,1.1401367  c-0.1965942-0.05896-0.3483887-0.3851929-0.4237671-0.6392212l0.5111694-1.3500366  c0.0175781-0.0708008,1.7792969-7.0869141,6.0883789-7.1547852c0.0522461-0.0009766,0.1318359-0.0141602,0.1826172-0.0258789  c0.0317383-0.0053711,3.175293-0.6069336,6.3618164,8.5014648l0.7423706,2.0256348  C73.9633789,47.7072754,73.9464111,48.394043,73.9023438,48.6660156z"/><path d="M59.6884766,79.3061523c0-0.4140625-0.3359375-0.75-0.75-0.75H21.5258789c-0.4140625,0-0.75,0.3359375-0.75,0.75  s0.3359375,0.75,0.75,0.75h37.4125977C59.3525391,80.0561523,59.6884766,79.7202148,59.6884766,79.3061523z"/><path d="M30.8222656,42.7436523c-0.394043-0.1308594-0.8178711,0.0810547-0.9492188,0.4736328l-3.5556641,10.6464844  c-0.1313477,0.3930664,0.0810547,0.8178711,0.4736328,0.9492188c0.0791016,0.0263672,0.1591797,0.0385742,0.237793,0.0385742  c0.3139648,0,0.6064453-0.1982422,0.7114258-0.512207l3.5556641-10.6464844  C31.4272461,43.2998047,31.2148438,42.875,30.8222656,42.7436523z"/></svg>