<svg xmlns="http://www.w3.org/2000/svg" viewBox="0 0 720 900" version="1.1" x="0px" y="0px"><path fill="#000000" opacity="1.00" d=" M 367.54 162.54 C 374.88 152.31 384.52 142.56 397.11 139.42 C 407.36 136.71 417.87 141.01 426.29 146.68 C 440.70 156.69 448.88 173.04 454.59 189.16 C 463.94 216.36 468.23 245.28 467.26 274.02 C 465.72 311.95 457.84 349.79 442.79 384.70 C 428.95 418.07 409.88 449.29 386.48 476.81 C 399.16 487.48 414.95 495.94 431.94 495.53 C 445.01 495.95 457.42 490.75 468.72 484.68 C 481.03 477.88 492.65 469.53 502.07 459.03 C 492.04 437.77 488.15 413.93 489.39 390.53 C 490.27 374.38 492.29 358.21 496.47 342.56 C 501.98 322.42 511.04 302.76 525.58 287.52 C 530.86 281.95 538.24 277.64 546.15 278.38 C 554.35 279.09 561.08 285.51 564.00 292.94 C 567.92 302.75 568.51 313.58 567.67 324.01 C 565.87 344.95 561.35 365.64 554.42 385.47 C 544.34 412.34 533.52 439.75 514.81 461.94 C 519.83 470.05 526.53 477.42 535.09 481.86 C 549.90 490.01 566.86 492.45 582.99 496.80 C 595.96 500.18 608.52 504.98 620.87 510.17 C 627.15 513.08 633.55 515.81 639.42 519.51 C 652.47 527.95 663.67 539.70 670.03 553.99 C 674.54 563.99 676.10 574.95 677.59 585.72 C 675.14 574.20 672.99 562.28 666.81 552.05 C 658.23 537.61 644.68 526.28 629.25 519.75 C 610.65 511.96 591.26 506.03 571.46 502.20 C 556.68 499.22 541.61 496.11 528.31 488.71 C 520.08 484.07 513.38 477.14 507.95 469.48 C 493.68 483.42 476.74 494.66 458.27 502.21 C 444.78 507.96 429.52 509.53 415.15 506.58 C 400.87 503.53 387.94 496.05 376.58 487.06 C 362.85 500.30 346.98 511.25 329.98 519.87 C 317.69 525.87 304.86 531.32 291.20 533.13 C 277.35 535.19 263.07 533.75 249.78 529.42 C 236.40 542.49 221.11 554.14 203.36 560.54 C 186.29 567.15 167.98 569.27 149.94 571.40 C 129.56 573.52 109.01 574.54 88.84 578.31 C 71.05 581.81 53.91 590.03 41.35 603.30 C 38.37 606.44 35.67 609.84 32.89 613.16 C 40.06 600.72 50.29 589.91 63.03 583.12 C 80.18 573.50 100.09 571.40 119.21 568.66 C 144.77 565.18 170.88 563.10 195.32 554.33 C 212.31 548.52 227.45 538.15 240.11 525.52 C 229.57 520.88 219.75 514.47 211.53 506.40 C 198.24 492.53 189.76 474.70 184.82 456.29 C 174.74 418.86 173.53 379.06 181.49 341.11 C 186.20 319.89 195.49 298.75 212.13 284.20 C 219.48 278.02 228.13 272.34 238.00 271.84 C 247.76 271.13 257.11 275.51 264.57 281.48 C 274.46 289.00 282.18 299.06 287.81 310.07 C 298.69 330.99 302.90 354.67 304.43 378.00 C 305.79 416.12 296.24 454.24 279.25 488.26 C 273.59 499.78 266.36 510.48 258.09 520.28 C 275.03 525.08 293.44 523.40 309.65 516.75 C 331.10 507.93 350.96 495.03 367.33 478.55 C 354.15 464.86 345.64 447.43 339.65 429.57 C 328.78 396.55 325.96 361.54 325.52 326.98 C 325.93 318.29 326.14 309.59 326.62 300.91 C 327.30 293.27 328.22 285.65 329.00 278.02 C 331.48 253.65 336.92 229.54 345.63 206.62 C 351.51 191.29 358.20 176.11 367.54 162.54 M 396.35 149.43 C 387.07 152.39 379.87 159.70 374.45 167.53 C 365.28 181.17 359.24 196.63 354.23 212.19 C 347.27 234.68 343.15 258.03 341.78 281.51 C 340.15 297.32 340.08 313.19 340.26 329.07 C 341.51 358.64 343.79 388.46 351.92 417.05 C 357.04 435.31 364.53 453.41 377.14 467.82 C 415.82 420.78 440.02 362.40 448.16 302.18 C 451.80 273.26 451.69 243.62 445.30 215.09 C 442.47 202.55 439.05 190.05 433.65 178.35 C 428.99 168.71 423.07 159.07 413.83 153.21 C 408.78 149.77 402.43 147.48 396.35 149.43 M 209.82 299.00 C 198.50 312.95 192.74 330.54 189.83 348.04 C 184.11 382.03 186.57 417.15 195.34 450.40 C 200.09 468.21 207.90 485.73 220.91 499.07 C 228.57 506.94 238.24 512.53 248.22 516.94 C 255.29 508.52 261.69 499.46 266.70 489.65 C 278.70 467.13 286.55 442.45 290.10 417.19 C 294.27 388.99 291.92 359.84 283.16 332.71 C 278.65 319.22 272.27 305.97 262.41 295.55 C 255.12 287.92 245.22 280.10 233.96 282.22 C 224.23 284.71 216.24 291.54 209.82 299.00 M 530.76 291.82 C 522.71 299.59 517.06 309.49 512.51 319.61 C 502.96 342.46 499.33 367.36 498.75 391.99 C 498.22 412.07 501.65 432.27 509.24 450.89 C 522.66 432.99 532.09 412.42 539.47 391.39 C 546.88 372.28 551.23 352.13 554.14 331.89 C 555.53 320.33 556.51 308.44 553.87 296.98 C 552.85 292.32 549.87 287.50 545.00 286.23 C 539.61 284.96 534.39 288.09 530.76 291.82 Z"/></svg>