<svg xmlns="http://www.w3.org/2000/svg" data-name="Слой 1" viewBox="0 0 100 125" x="0px" y="0px"><title>сигнал</title><g><path d="M44.16826,82.22789c-0.05424-10.42242-.03065-20.84654-0.25654-31.26521a6.74423,6.74423,0,0,0-2.09457-4.03315,11.66914,11.66914,0,0,1-2.78253-13.55577c1.31215-3.28308,3.5498-4.90579,7.06367-4.93715A11.09733,11.09733,0,0,1,56.77523,35.2882c1.40966,3.28739,1.25835,6.41248-1.58618,8.884-1.58154,1.37419-3.29,3.03016-5.20172,3.50047-3.21813.79166-3.46968,2.76014-3.33718,5.34019,0.31033,6.04179.65217,12.08356,0.83592,18.12974,0.15329,5.04283.2013,10.09481,0.057,15.13587-0.03072,1.07316-1.0944,2.11683-1.68217,3.17405-0.85781-.99625-2.07747-1.86762-2.476-3.02231-0.43572-1.26249-.11215-2.78707-0.11949-4.19741Z"/><path d="M24.4753,11.63019c-1.69179,2.09819-3.504,4.11149-5.05448,6.30931-6.64055,9.41259-6.60523,19.75934-3.96365,30.3833,0.94665,3.80741,2.256,7.52352,3.269,11.31621a37.53929,37.53929,0,0,1,.66279,4.67685q-0.5053.229-1.01058,0.45795c-0.55365-.58775-1.42611-1.08888-1.61294-1.77631C14.08036,53.11805,10.16,43.51308,10.54823,32.964c0.29744-8.082,4.0656-14.54173,9.048-20.44562,0.88949-1.054,2.6748-1.352,4.04647-1.99913Q24.059,11.07478,24.4753,11.63019Z"/><path d="M31.31646,13.80743a21.48747,21.48747,0,0,1-1.74519,4.09782c-6.50016,9.36853-7.75237,19.73226-5.66289,30.61032,0.42732,2.22474,2.37771,4.11689,3.216,6.31853,0.45723,1.20088.05409,2.7293,0.039,4.11-1.20677-.63931-2.97764-0.96638-3.53157-1.96706-4.63547-8.37416-5.01691-17.44418-3.10747-26.523,0.96386-4.58272,2.9848-9.00056,4.983-13.28045,0.82065-1.75758,2.84137-2.95491,4.3162-4.40706Q30.57,13.287,31.31646,13.80743Z"/><path d="M81.54731,11.17862c4.53159,0.76311,5.50851,3.51044,6.33713,5.97731,2.51793,7.4962,1.92313,15.10021-.45928,22.45683-2.243,6.9262-5.09711,13.65454-7.68234,20.4699q-0.55448-.12711-1.109-0.25433c0.527-2.53122.96067-5.0862,1.59876-7.58909,1.83851-7.21181,3.7967-14.39315,5.63739-21.6044C87.59381,23.88131,86.1777,17.61849,81.54731,11.17862Z"/><path d="M71.86716,16.997a14.24271,14.24271,0,0,1,2.51955,2.2536c3.98052,5.75236,5.56188,12.0098,3.39434,18.85756-1.23087,3.88865-2.56,7.75746-4.11054,11.52592-0.40127.97519-1.80322,1.53855-2.7455,2.29107-0.3086-1.23067-1.13374-2.6053-.83759-3.66734,1.38225-4.95709,3.26728-9.776,4.59827-14.74466a13.90327,13.90327,0,0,0-2.64787-12.64025A11.33032,11.33032,0,0,1,70.85592,17.677Z"/><path d="M36.9725,22.20638c-1.61279,3.34759-3.91114,6.55282-4.64435,10.08308-0.72382,3.48516.17857,7.29794,0.27318,10.96946a21.543,21.543,0,0,1-.40585,3.292c-0.9415-.5631-2.30371-0.89614-2.75753-1.72593-3.43051-6.27278-1.6569-17.21464,3.53593-21.9296,0.94626-.85919,2.39055-1.16993,3.60494-1.73387Q36.77565,21.68393,36.9725,22.20638Z"/><path d="M63.69412,22.62941c3.94591,1.00093,5.842,4.37843,6.28831,7.96918,0.41444,3.33471-.55408,6.8787-1.19321,10.278-0.14162.75323-1.45641,1.28594-2.231,1.92024a14.18205,14.18205,0,0,1-1.39785-2.76766,3.00831,3.00831,0,0,1,.49413-1.98417c2.20969-3.83287.93294-7.27954-1.0686-10.67148-0.73636-1.2479-1.45963-2.50355-2.18888-3.75569Q63.04559,23.12364,63.69412,22.62941Z"/></g></svg>