<svg xmlns="http://www.w3.org/2000/svg" data-name="Слой 1" viewBox="0 0 100 125" x="0px" y="0px"><title>смартфон</title><path d="M49.09266,6.10542c4.42707-.3717,8.85793-0.72253,13.28037-1.12073a11.04929,11.04929,0,0,1,11.9159,8.468A132.42657,132.42657,0,0,1,77.5984,37.14607c0.40719,12.25281-.216,24.4502-0.41954,36.66931-0.05474,3.28943.039,6.61243-.30214,9.85046-0.73692,6.99609-7.1363,11.6748-14.45071,11.38232-8.44691-.33777-16.88287-0.348-25.3066-0.31482-10.013.03943-12.016-2.6604-13.44528-12.59058-2.165-15.04-1.371-29.70789-.64871-44.45642,0.27157-5.548.24082-11.14014,0.62936-16.66833C24.59795,7.59883,27.942,7.07637,39.56692,5.91865c3.1072-.30945,6.32074-0.04675,9.48553-0.04675Zm24.27451,27.739L72.7951,33.77c-0.2324-2.65637-.59218-5.32031-0.66259-7.96692-0.07454-2.81091-1.17892-3.74731-4.06928-3.73035-10.39459.06067-20.83027-.31055-31.21934-0.202-6.65835.06946-8.32806,2.0658-8.53131,8.5509-0.046,1.47-.4712,2.89368-0.54177,4.36279-0.45662,9.51208-2.88153,18.72241,1.03328,28.73645,2.01864,5.16345,4.36356,7.97156,9.48729,8.28638,7.96066,0.48938,15.92519.868,23.8672,0.99915A9.54817,9.54817,0,0,0,71.949,64.18782C72.57745,54.09626,72.912,43.9615,73.36716,33.84443ZM70.141,17.37727c-1.22146-5.66089-2.82788-7.35168-7.59955-7.4668-8.30819-.20044-16.61629-0.22412-24.88.04773-6.16523.20288-7.45577,1.792-7.74594,7.41907H70.141ZM27.3182,73.60249c0.36838,4.21057.69843,8.918,1.27128,13.61694a3.30246,3.30246,0,0,0,1.90559,2.21375c4.61963,0.48694,9.24434.70129,13.55709,0.98328-0.86006-3.32019-2.21888-5.76392-1.78422-7.65356,0.46119-2.00488,2.625-3.48389,4.24393-5.4314-3.21684-.447-6.282-0.738-9.31334-1.33093C33.95827,75.36677,30.74987,74.44831,27.3182,73.60249ZM54.50315,91.19978c14.697,0.73657,19.56748-3.81213,17.451-14.78821-6.96794.69849-13.924,1.39563-20.77642,2.08252C59.08469,86.34419,56.38488,86.53694,54.50315,91.19978Z"/></svg>